<?xml version="1.0" encoding="UTF-8" ?>
<!DOCTYPE svg PUBLIC "-//W3C//DTD SVG 1.1//EN" "http://www.w3.org/Graphics/SVG/1.1/DTD/svg11.dtd">
<svg width="2403pt" height="508pt" viewBox="0 0 2403 508" version="1.1" xmlns="http://www.w3.org/2000/svg">
<g id="#d52b1eff">
<path fill="#d52b1e" opacity="1.00" d=" M 0.00 0.00 L 2403.00 0.00 L 2403.00 508.00 L 0.00 508.00 L 0.00 0.00 M 435.29 94.64 C 419.11 102.17 402.67 109.52 387.78 119.38 C 403.29 116.84 420.93 119.32 433.50 129.44 C 444.59 138.38 446.77 154.21 443.01 167.27 C 435.42 192.97 416.98 213.96 396.98 231.06 C 368.49 254.16 334.95 272.07 298.59 278.47 C 290.62 278.36 282.73 282.00 274.85 279.71 C 260.50 279.01 244.70 273.47 237.47 260.14 C 230.60 247.99 233.30 233.05 239.03 221.04 C 221.80 237.36 203.44 252.83 189.12 271.95 C 182.98 280.14 176.67 289.40 176.53 299.95 C 177.03 307.95 185.31 311.33 192.16 312.27 C 204.15 313.03 216.17 312.49 228.00 310.57 C 275.60 305.77 323.11 321.68 365.02 343.65 C 389.24 355.88 412.03 370.87 437.01 381.60 C 465.67 393.78 496.71 401.83 528.00 400.45 C 567.93 401.78 607.24 387.74 640.61 366.40 C 693.33 332.27 732.51 280.77 761.05 225.53 C 761.72 220.31 763.18 212.81 757.26 210.01 C 751.33 206.81 744.93 211.71 741.90 216.70 C 716.22 256.17 683.17 291.85 641.87 315.19 C 614.83 330.49 584.16 339.86 553.11 340.90 C 526.46 341.90 497.56 333.35 479.04 312.95 C 458.44 290.14 451.22 257.44 454.51 227.57 C 457.55 197.55 468.53 168.57 485.09 143.41 C 494.68 126.88 507.29 109.74 506.46 89.75 C 505.86 81.58 496.90 78.98 490.05 78.64 C 470.92 80.01 452.75 87.11 435.29 94.64 M 1866.40 143.54 C 1863.86 143.73 1860.32 144.68 1860.75 147.94 C 1860.66 207.64 1860.71 267.34 1860.73 327.04 C 1860.38 332.84 1868.11 331.87 1872.01 332.16 C 1875.79 331.91 1883.19 332.67 1882.97 327.07 C 1882.91 267.08 1883.10 207.08 1882.87 147.11 C 1880.21 141.37 1871.61 143.69 1866.40 143.54 M 2013.91 147.95 C 2013.94 207.95 2013.91 267.97 2013.91 327.97 C 2014.56 332.93 2021.35 331.77 2025.00 332.15 C 2028.81 331.90 2036.37 332.74 2036.03 327.05 C 2036.09 304.91 2036.00 282.77 2036.07 260.64 C 2053.02 282.49 2069.68 304.57 2086.47 326.55 C 2091.26 334.44 2101.95 331.96 2109.65 331.62 C 2114.33 331.42 2114.46 326.01 2111.69 323.35 C 2094.95 301.21 2077.78 279.39 2060.94 257.32 C 2075.86 242.46 2090.79 227.59 2105.61 212.62 C 2108.26 210.31 2110.99 204.15 2105.84 203.10 C 2097.79 202.09 2087.37 200.41 2081.59 207.59 C 2066.42 224.22 2051.37 240.96 2036.08 257.48 C 2035.88 220.40 2036.31 183.29 2035.87 146.23 C 2032.98 142.33 2027.18 143.58 2022.95 143.29 C 2019.67 143.58 2013.61 143.17 2013.91 147.95 M 852.67 165.26 C 852.49 219.15 852.63 273.04 852.61 326.93 C 852.08 332.02 858.47 331.81 861.95 332.09 C 866.34 331.70 873.14 333.24 875.58 328.62 C 875.95 307.41 875.61 286.17 875.74 264.95 C 896.03 264.98 918.09 266.45 935.93 254.92 C 958.10 241.42 965.12 211.10 956.43 187.63 C 951.00 172.85 937.09 162.39 921.99 159.02 C 902.95 154.84 883.32 157.21 864.00 156.56 C 858.60 155.75 852.38 159.26 852.67 165.26 M 1600.23 165.96 C 1600.08 218.99 1600.24 272.02 1600.15 325.05 C 1600.09 327.29 1599.93 330.58 1602.83 331.07 C 1608.67 332.57 1615.04 332.60 1620.88 331.02 C 1623.28 330.56 1623.42 328.03 1623.38 326.04 C 1623.35 305.69 1623.38 285.34 1623.36 264.99 C 1646.31 265.23 1672.50 266.34 1690.60 249.60 C 1706.41 235.36 1710.86 211.63 1705.44 191.62 C 1701.41 176.44 1688.65 164.73 1673.86 160.17 C 1653.43 154.27 1631.92 157.36 1610.98 156.57 C 1605.40 155.80 1599.74 160.07 1600.23 165.96 M 355.39 166.46 C 336.62 170.11 319.42 180.49 306.51 194.46 C 300.61 201.33 294.95 209.57 295.02 218.99 C 295.12 225.61 300.72 230.86 306.99 232.03 C 319.68 234.59 332.59 230.35 343.95 224.90 C 361.26 215.64 380.09 201.70 383.19 181.01 C 383.93 166.66 366.18 163.74 355.39 166.46 M 1339.81 172.74 C 1339.15 182.79 1339.78 192.92 1339.52 203.00 C 1333.18 203.27 1326.69 202.31 1320.46 203.48 C 1317.03 208.17 1316.94 215.93 1320.33 220.71 C 1326.57 222.10 1333.14 220.89 1339.51 221.35 C 1339.65 245.93 1339.43 270.50 1339.62 295.08 C 1339.80 306.61 1341.81 319.89 1351.66 327.30 C 1362.99 335.30 1378.34 334.86 1391.13 331.06 C 1398.84 328.98 1397.80 319.28 1396.69 313.18 C 1396.35 310.06 1392.78 311.03 1390.89 311.96 C 1383.85 315.03 1375.01 316.39 1368.37 311.70 C 1362.63 306.58 1362.11 298.15 1361.80 290.97 C 1361.62 267.77 1361.80 244.57 1361.71 221.37 C 1372.70 221.08 1383.80 221.92 1394.74 220.95 C 1398.77 216.23 1398.15 208.14 1394.97 203.05 C 1383.89 202.89 1372.81 203.00 1361.73 202.99 C 1361.59 193.11 1361.98 183.21 1361.56 173.34 C 1360.07 169.21 1354.51 170.05 1350.99 169.74 C 1347.30 170.09 1342.02 169.00 1339.81 172.74 M 600.52 178.53 C 575.32 181.85 552.17 199.09 541.84 222.37 C 535.73 236.04 535.39 253.21 544.42 265.71 C 552.05 276.41 565.32 281.55 578.07 282.15 C 611.49 283.67 645.41 259.72 652.93 226.61 C 654.65 215.31 653.71 202.81 646.26 193.57 C 635.77 179.76 616.78 175.96 600.52 178.53 M 1164.36 200.56 C 1149.10 200.62 1133.33 206.44 1123.54 218.53 C 1111.55 233.05 1108.33 252.67 1108.70 270.99 C 1108.94 288.97 1113.12 308.51 1126.72 321.28 C 1146.34 338.77 1177.89 337.26 1198.77 322.77 C 1204.25 319.51 1205.13 312.80 1204.49 307.00 C 1204.19 304.35 1204.33 298.94 1200.38 299.49 C 1194.07 302.47 1189.19 307.91 1182.70 310.66 C 1169.73 317.39 1151.31 316.26 1141.70 304.32 C 1133.04 293.30 1131.66 278.56 1131.90 265.02 C 1132.16 250.47 1134.95 233.66 1147.42 224.41 C 1161.29 215.00 1180.36 219.20 1192.66 229.36 C 1195.42 231.62 1200.71 236.14 1203.03 230.99 C 1204.70 224.62 1205.10 216.18 1199.30 211.69 C 1189.62 203.70 1176.71 200.53 1164.36 200.56 M 1770.54 200.83 C 1754.21 202.02 1738.06 210.06 1728.76 223.78 C 1717.91 239.49 1715.62 259.46 1717.05 278.07 C 1718.26 293.88 1723.55 310.41 1735.93 321.04 C 1748.91 332.32 1767.13 335.01 1783.76 333.59 C 1798.92 332.35 1813.99 325.64 1823.58 313.58 C 1835.36 298.94 1838.88 279.37 1838.05 261.01 C 1837.59 243.59 1832.32 225.02 1818.75 213.24 C 1805.63 201.91 1787.28 199.30 1770.54 200.83 M 1945.51 200.78 C 1934.88 201.72 1924.13 205.87 1916.76 213.80 C 1904.72 226.93 1905.34 250.14 1919.38 261.64 C 1932.17 273.14 1950.84 274.19 1963.95 285.07 C 1973.02 292.27 1970.17 308.38 1959.77 312.89 C 1945.15 319.63 1927.93 315.38 1914.80 307.19 C 1912.38 305.89 1908.12 302.77 1906.35 306.41 C 1904.53 313.12 1903.95 323.10 1911.55 326.45 C 1930.02 335.69 1953.14 336.88 1971.89 327.79 C 1991.63 318.71 1998.07 289.66 1983.46 273.45 C 1970.43 259.91 1949.95 258.79 1935.48 247.49 C 1926.35 240.84 1928.22 225.04 1938.43 220.43 C 1950.91 214.86 1965.68 218.07 1977.05 224.85 C 1979.11 226.03 1982.68 228.33 1984.12 225.10 C 1985.34 220.05 1986.16 213.57 1982.86 209.18 C 1972.32 201.33 1958.29 199.74 1945.51 200.78 M 2138.43 211.45 C 2132.11 214.82 2131.99 223.54 2134.63 229.31 C 2136.59 232.52 2140.44 230.00 2142.89 228.81 C 2154.39 222.25 2167.44 217.19 2180.92 218.61 C 2188.92 218.79 2197.57 222.16 2201.46 229.58 C 2205.65 237.91 2204.93 247.56 2204.95 256.60 C 2185.39 256.64 2164.62 255.51 2146.70 264.73 C 2133.24 271.03 2125.52 286.16 2127.39 300.77 C 2127.90 316.40 2140.48 329.58 2155.58 332.42 C 2174.53 337.57 2195.04 330.25 2208.02 315.91 C 2209.02 321.16 2204.71 331.61 2213.01 331.95 C 2217.44 331.89 2224.52 333.66 2226.92 328.88 C 2227.25 301.93 2226.95 274.96 2227.06 248.00 C 2227.13 236.67 2225.89 224.46 2218.86 215.12 C 2212.51 206.72 2202.05 202.67 2191.92 201.25 C 2173.68 198.86 2154.28 201.83 2138.43 211.45 M 1017.38 201.52 C 1006.68 203.33 996.37 208.00 988.40 215.41 C 972.80 229.96 968.33 252.52 969.12 273.04 C 969.75 289.96 974.29 308.00 987.08 319.92 C 1000.45 332.39 1019.98 335.25 1037.54 333.44 C 1053.30 331.91 1068.80 324.14 1077.97 310.99 C 1089.24 295.09 1091.74 274.69 1090.12 255.70 C 1088.89 239.49 1082.95 222.57 1069.85 212.17 C 1055.23 200.61 1035.24 198.75 1017.38 201.52 M 1419.87 213.89 C 1414.75 218.07 1415.24 235.03 1424.53 230.52 C 1436.31 224.03 1449.25 218.06 1463.06 219.19 C 1471.42 219.21 1480.83 222.13 1485.00 229.98 C 1489.29 238.34 1488.92 248.15 1488.69 257.30 C 1472.04 257.35 1454.92 256.51 1438.89 261.85 C 1428.78 265.12 1419.02 271.49 1414.36 281.35 C 1407.11 297.16 1411.18 318.89 1426.87 328.07 C 1447.70 340.45 1475.89 334.61 1491.71 316.71 C 1492.71 321.85 1488.60 331.58 1496.17 332.58 C 1500.79 332.68 1507.90 334.40 1510.65 329.66 C 1511.08 303.46 1510.69 277.21 1510.84 251.00 C 1510.85 239.98 1510.30 228.26 1504.47 218.57 C 1497.73 207.17 1484.13 202.43 1471.57 201.46 C 1453.76 200.01 1434.61 203.36 1419.87 213.89 M 1227.32 203.24 C 1223.07 207.50 1223.04 217.28 1227.66 221.28 C 1245.43 222.11 1263.36 221.36 1281.19 221.65 C 1262.96 250.23 1244.49 278.67 1226.27 307.25 C 1222.38 312.98 1222.00 320.23 1223.08 326.87 C 1223.67 330.01 1226.98 331.62 1229.96 331.39 C 1253.64 331.42 1277.33 331.35 1301.02 331.42 C 1311.92 333.85 1311.90 310.31 1301.03 312.68 C 1282.98 312.74 1264.94 312.67 1246.90 312.72 C 1264.96 284.20 1283.31 255.86 1301.38 227.34 C 1305.42 221.24 1306.07 213.41 1304.46 206.43 C 1303.33 202.82 1299.08 202.89 1296.02 202.95 C 1273.12 203.19 1250.18 202.59 1227.32 203.24 Z" />
<path fill="#d52b1e" opacity="1.00" d=" M 875.73 175.70 C 892.59 176.61 912.66 172.06 926.29 184.72 C 939.91 198.86 938.63 224.95 923.71 237.72 C 910.32 248.96 891.81 245.24 875.76 245.98 C 875.70 222.55 875.74 199.13 875.73 175.70 Z" />
<path fill="#d52b1e" opacity="1.00" d=" M 1623.36 175.70 C 1636.77 176.17 1650.66 174.19 1663.65 178.34 C 1689.25 187.47 1689.56 228.35 1666.80 240.93 C 1653.55 248.26 1637.85 245.35 1623.40 245.89 C 1623.33 222.49 1623.40 199.09 1623.36 175.70 Z" />
<path fill="#d52b1e" opacity="1.00" d=" M 1023.34 219.41 C 1033.29 218.10 1044.26 219.26 1052.37 225.67 C 1061.34 232.50 1065.04 243.97 1066.33 254.76 C 1068.09 270.69 1067.75 288.48 1058.08 302.04 C 1048.58 315.32 1029.74 317.92 1015.09 312.90 C 1003.31 308.65 995.98 296.83 994.05 284.88 C 991.34 269.12 991.23 252.00 998.42 237.35 C 1003.05 227.66 1012.67 220.69 1023.34 219.41 Z" />
<path fill="#d52b1e" opacity="1.00" d=" M 1771.35 219.35 C 1781.24 218.13 1792.16 219.38 1800.15 225.83 C 1809.06 232.77 1812.70 244.26 1813.96 255.08 C 1815.59 269.73 1815.22 285.57 1807.86 298.76 C 1795.90 320.59 1758.89 321.19 1746.79 299.21 C 1740.70 288.59 1740.02 275.93 1739.98 263.97 C 1739.54 244.66 1749.72 221.34 1771.35 219.35 Z" />
<path fill="#d52b1e" opacity="1.00" d=" M 1443.02 279.03 C 1456.84 271.11 1473.46 273.83 1488.68 273.33 C 1488.59 281.79 1488.94 290.27 1488.53 298.72 C 1479.20 311.75 1461.82 321.81 1445.65 315.34 C 1430.88 310.00 1429.54 286.61 1443.02 279.03 Z" />
<path fill="#d52b1e" opacity="1.00" d=" M 2159.98 277.95 C 2173.73 270.52 2190.00 273.14 2205.00 272.61 C 2204.74 281.27 2205.44 290.01 2204.67 298.63 C 2198.56 305.66 2191.22 312.29 2182.21 315.22 C 2173.14 317.80 2161.88 317.18 2155.05 309.95 C 2146.77 300.79 2148.61 283.83 2159.98 277.95 Z" />
</g>
<g id="#ffffffff">
<path fill="#ffffff" opacity="1.00" d=" M 435.29 94.64 C 452.75 87.11 470.92 80.01 490.05 78.64 C 496.90 78.98 505.86 81.58 506.46 89.75 C 507.29 109.74 494.68 126.88 485.09 143.41 C 468.53 168.57 457.55 197.55 454.51 227.57 C 451.22 257.44 458.44 290.14 479.04 312.95 C 497.56 333.35 526.46 341.90 553.11 340.90 C 584.16 339.86 614.83 330.49 641.87 315.19 C 683.17 291.85 716.22 256.17 741.90 216.70 C 744.93 211.71 751.33 206.81 757.26 210.01 C 763.18 212.81 761.72 220.31 761.05 225.53 C 732.51 280.77 693.33 332.27 640.61 366.40 C 607.24 387.74 567.93 401.78 528.00 400.45 C 496.71 401.83 465.67 393.78 437.01 381.60 C 412.03 370.87 389.24 355.88 365.02 343.65 C 323.11 321.68 275.60 305.77 228.00 310.57 C 216.17 312.49 204.15 313.03 192.16 312.27 C 185.31 311.33 177.03 307.95 176.53 299.95 C 176.67 289.40 182.98 280.14 189.12 271.95 C 203.44 252.83 221.80 237.36 239.03 221.04 C 233.30 233.05 230.60 247.99 237.47 260.14 C 244.70 273.47 260.50 279.01 274.85 279.71 C 282.73 282.00 290.62 278.36 298.59 278.47 C 334.95 272.07 368.49 254.16 396.98 231.06 C 416.98 213.96 435.42 192.97 443.01 167.27 C 446.77 154.21 444.59 138.38 433.50 129.44 C 420.93 119.32 403.29 116.84 387.78 119.38 C 402.67 109.52 419.11 102.17 435.29 94.64 Z" />
<path fill="#ffffff" opacity="1.00" d=" M 1866.40 143.54 C 1871.61 143.69 1880.21 141.37 1882.87 147.11 C 1883.10 207.08 1882.91 267.08 1882.97 327.07 C 1883.19 332.67 1875.79 331.91 1872.01 332.16 C 1868.11 331.87 1860.38 332.84 1860.73 327.04 C 1860.71 267.34 1860.66 207.64 1860.75 147.94 C 1860.32 144.68 1863.86 143.73 1866.40 143.54 Z" />
<path fill="#ffffff" opacity="1.00" d=" M 2013.91 147.95 C 2013.61 143.17 2019.67 143.58 2022.95 143.29 C 2027.18 143.58 2032.98 142.33 2035.87 146.23 C 2036.31 183.29 2035.88 220.40 2036.08 257.48 C 2051.37 240.96 2066.42 224.22 2081.59 207.59 C 2087.37 200.41 2097.79 202.09 2105.84 203.10 C 2110.99 204.15 2108.26 210.31 2105.61 212.62 C 2090.79 227.59 2075.86 242.46 2060.94 257.32 C 2077.78 279.39 2094.95 301.21 2111.69 323.35 C 2114.46 326.01 2114.33 331.42 2109.65 331.62 C 2101.95 331.96 2091.26 334.44 2086.47 326.55 C 2069.68 304.57 2053.02 282.49 2036.07 260.64 C 2036.00 282.77 2036.09 304.91 2036.03 327.05 C 2036.37 332.74 2028.81 331.90 2025.00 332.15 C 2021.35 331.77 2014.56 332.93 2013.91 327.97 C 2013.91 267.97 2013.94 207.95 2013.91 147.95 Z" />
<path fill="#ffffff" opacity="1.00" d=" M 852.67 165.26 C 852.38 159.26 858.60 155.75 864.00 156.56 C 883.32 157.21 902.95 154.84 921.99 159.02 C 937.09 162.39 951.00 172.85 956.43 187.63 C 965.12 211.10 958.10 241.42 935.93 254.92 C 918.09 266.45 896.03 264.98 875.74 264.95 C 875.61 286.17 875.95 307.41 875.58 328.62 C 873.14 333.24 866.34 331.70 861.95 332.09 C 858.47 331.81 852.08 332.02 852.61 326.93 C 852.63 273.04 852.49 219.15 852.67 165.26 M 875.73 175.70 C 875.74 199.13 875.70 222.55 875.76 245.98 C 891.81 245.24 910.32 248.96 923.71 237.72 C 938.63 224.95 939.91 198.86 926.29 184.72 C 912.66 172.06 892.59 176.61 875.73 175.70 Z" />
<path fill="#ffffff" opacity="1.00" d=" M 1600.23 165.96 C 1599.74 160.07 1605.40 155.80 1610.98 156.57 C 1631.92 157.36 1653.43 154.27 1673.86 160.17 C 1688.65 164.73 1701.41 176.44 1705.44 191.62 C 1710.86 211.63 1706.41 235.36 1690.60 249.60 C 1672.50 266.34 1646.31 265.23 1623.36 264.99 C 1623.38 285.34 1623.35 305.69 1623.38 326.04 C 1623.42 328.03 1623.28 330.56 1620.88 331.02 C 1615.04 332.60 1608.67 332.57 1602.83 331.07 C 1599.93 330.58 1600.09 327.29 1600.15 325.05 C 1600.24 272.02 1600.08 218.99 1600.23 165.96 M 1623.36 175.70 C 1623.40 199.09 1623.33 222.49 1623.40 245.89 C 1637.85 245.35 1653.55 248.26 1666.80 240.93 C 1689.56 228.35 1689.25 187.47 1663.65 178.34 C 1650.66 174.19 1636.77 176.17 1623.36 175.70 Z" />
<path fill="#ffffff" opacity="1.00" d=" M 355.39 166.46 C 366.18 163.74 383.93 166.66 383.19 181.01 C 380.09 201.70 361.26 215.64 343.95 224.90 C 332.59 230.35 319.68 234.59 306.99 232.03 C 300.72 230.86 295.12 225.61 295.02 218.99 C 294.95 209.57 300.61 201.33 306.51 194.46 C 319.42 180.49 336.62 170.11 355.39 166.46 Z" />
<path fill="#ffffff" opacity="1.00" d=" M 1339.81 172.74 C 1342.02 169.00 1347.30 170.09 1350.99 169.74 C 1354.51 170.05 1360.07 169.21 1361.56 173.34 C 1361.98 183.21 1361.59 193.11 1361.73 202.99 C 1372.81 203.00 1383.89 202.89 1394.97 203.05 C 1398.15 208.14 1398.77 216.23 1394.74 220.95 C 1383.80 221.92 1372.70 221.08 1361.71 221.37 C 1361.80 244.57 1361.62 267.77 1361.80 290.97 C 1362.11 298.15 1362.63 306.58 1368.37 311.70 C 1375.01 316.39 1383.85 315.03 1390.89 311.96 C 1392.78 311.03 1396.35 310.06 1396.69 313.18 C 1397.80 319.28 1398.84 328.98 1391.13 331.06 C 1378.34 334.86 1362.99 335.30 1351.66 327.30 C 1341.81 319.89 1339.80 306.61 1339.62 295.08 C 1339.43 270.50 1339.65 245.93 1339.51 221.35 C 1333.14 220.89 1326.57 222.10 1320.33 220.71 C 1316.94 215.93 1317.03 208.17 1320.46 203.48 C 1326.69 202.31 1333.18 203.27 1339.52 203.00 C 1339.78 192.92 1339.15 182.79 1339.81 172.74 Z" />
<path fill="#ffffff" opacity="1.00" d=" M 600.52 178.53 C 616.78 175.96 635.77 179.76 646.26 193.57 C 653.71 202.81 654.65 215.31 652.93 226.61 C 645.41 259.72 611.49 283.67 578.07 282.15 C 565.32 281.55 552.05 276.41 544.42 265.71 C 535.39 253.21 535.73 236.04 541.84 222.37 C 552.17 199.09 575.32 181.85 600.52 178.53 Z" />
<path fill="#ffffff" opacity="1.00" d=" M 1164.36 200.56 C 1176.71 200.53 1189.62 203.70 1199.30 211.69 C 1205.10 216.18 1204.70 224.62 1203.03 230.99 C 1200.71 236.14 1195.42 231.62 1192.66 229.36 C 1180.36 219.20 1161.29 215.00 1147.42 224.41 C 1134.95 233.66 1132.16 250.47 1131.90 265.02 C 1131.66 278.56 1133.04 293.30 1141.70 304.32 C 1151.31 316.26 1169.73 317.39 1182.70 310.66 C 1189.19 307.91 1194.07 302.47 1200.38 299.49 C 1204.33 298.94 1204.19 304.35 1204.49 307.00 C 1205.13 312.80 1204.25 319.51 1198.77 322.77 C 1177.89 337.26 1146.34 338.77 1126.72 321.28 C 1113.12 308.51 1108.94 288.97 1108.70 270.99 C 1108.33 252.67 1111.55 233.05 1123.54 218.53 C 1133.33 206.44 1149.10 200.62 1164.36 200.56 Z" />
<path fill="#ffffff" opacity="1.00" d=" M 1770.54 200.83 C 1787.28 199.30 1805.63 201.91 1818.75 213.24 C 1832.32 225.02 1837.59 243.59 1838.05 261.01 C 1838.88 279.37 1835.36 298.94 1823.58 313.58 C 1813.99 325.64 1798.92 332.35 1783.76 333.59 C 1767.13 335.01 1748.91 332.32 1735.93 321.04 C 1723.55 310.41 1718.26 293.88 1717.05 278.07 C 1715.62 259.46 1717.91 239.49 1728.76 223.78 C 1738.06 210.06 1754.21 202.02 1770.54 200.83 M 1771.35 219.35 C 1749.72 221.34 1739.54 244.66 1739.98 263.97 C 1740.02 275.93 1740.70 288.59 1746.79 299.21 C 1758.89 321.19 1795.90 320.59 1807.86 298.76 C 1815.22 285.57 1815.59 269.73 1813.96 255.08 C 1812.70 244.26 1809.06 232.77 1800.15 225.83 C 1792.16 219.38 1781.24 218.13 1771.35 219.35 Z" />
<path fill="#ffffff" opacity="1.00" d=" M 1945.51 200.78 C 1958.29 199.74 1972.32 201.33 1982.86 209.18 C 1986.16 213.57 1985.34 220.05 1984.12 225.10 C 1982.68 228.33 1979.11 226.03 1977.05 224.85 C 1965.68 218.07 1950.91 214.86 1938.43 220.43 C 1928.22 225.04 1926.35 240.84 1935.48 247.49 C 1949.95 258.79 1970.43 259.91 1983.46 273.45 C 1998.07 289.66 1991.63 318.71 1971.89 327.79 C 1953.14 336.88 1930.02 335.69 1911.55 326.45 C 1903.95 323.10 1904.53 313.12 1906.35 306.41 C 1908.12 302.77 1912.38 305.89 1914.80 307.19 C 1927.93 315.38 1945.15 319.63 1959.77 312.89 C 1970.17 308.38 1973.02 292.27 1963.95 285.07 C 1950.84 274.19 1932.17 273.14 1919.38 261.64 C 1905.34 250.14 1904.72 226.93 1916.76 213.80 C 1924.13 205.87 1934.88 201.72 1945.51 200.78 Z" />
<path fill="#ffffff" opacity="1.00" d=" M 2138.43 211.45 C 2154.28 201.83 2173.68 198.86 2191.92 201.25 C 2202.05 202.67 2212.51 206.72 2218.86 215.12 C 2225.89 224.46 2227.13 236.67 2227.06 248.00 C 2226.95 274.96 2227.25 301.93 2226.92 328.88 C 2224.52 333.66 2217.44 331.89 2213.01 331.95 C 2204.71 331.61 2209.02 321.16 2208.02 315.91 C 2195.04 330.25 2174.53 337.57 2155.58 332.42 C 2140.48 329.58 2127.90 316.40 2127.39 300.77 C 2125.52 286.16 2133.24 271.03 2146.70 264.73 C 2164.62 255.51 2185.39 256.64 2204.95 256.60 C 2204.93 247.56 2205.65 237.91 2201.46 229.58 C 2197.57 222.16 2188.92 218.79 2180.92 218.61 C 2167.44 217.19 2154.39 222.25 2142.89 228.81 C 2140.44 230.00 2136.59 232.52 2134.63 229.31 C 2131.99 223.54 2132.11 214.82 2138.43 211.45 M 2159.98 277.95 C 2148.61 283.83 2146.77 300.79 2155.05 309.95 C 2161.88 317.18 2173.14 317.80 2182.21 315.22 C 2191.22 312.29 2198.56 305.66 2204.67 298.63 C 2205.44 290.01 2204.74 281.27 2205.00 272.61 C 2190.00 273.14 2173.73 270.52 2159.98 277.95 Z" />
<path fill="#ffffff" opacity="1.00" d=" M 1017.38 201.52 C 1035.24 198.75 1055.23 200.61 1069.85 212.17 C 1082.95 222.57 1088.89 239.49 1090.12 255.70 C 1091.74 274.69 1089.24 295.09 1077.97 310.99 C 1068.80 324.14 1053.30 331.91 1037.54 333.44 C 1019.98 335.25 1000.45 332.39 987.08 319.92 C 974.29 308.00 969.75 289.96 969.12 273.04 C 968.33 252.52 972.80 229.96 988.40 215.41 C 996.37 208.00 1006.68 203.33 1017.38 201.52 M 1023.34 219.41 C 1012.67 220.69 1003.05 227.66 998.42 237.35 C 991.23 252.00 991.34 269.12 994.05 284.88 C 995.98 296.83 1003.31 308.65 1015.09 312.90 C 1029.74 317.92 1048.58 315.32 1058.08 302.04 C 1067.75 288.48 1068.09 270.69 1066.33 254.76 C 1065.04 243.97 1061.34 232.50 1052.37 225.67 C 1044.26 219.26 1033.29 218.10 1023.34 219.41 Z" />
<path fill="#ffffff" opacity="1.00" d=" M 1419.87 213.89 C 1434.61 203.36 1453.76 200.01 1471.57 201.46 C 1484.13 202.43 1497.73 207.17 1504.47 218.57 C 1510.30 228.26 1510.85 239.98 1510.84 251.00 C 1510.69 277.21 1511.08 303.46 1510.65 329.66 C 1507.90 334.40 1500.79 332.68 1496.17 332.58 C 1488.60 331.58 1492.71 321.85 1491.71 316.71 C 1475.89 334.61 1447.70 340.45 1426.87 328.07 C 1411.18 318.89 1407.11 297.16 1414.36 281.35 C 1419.02 271.49 1428.78 265.12 1438.89 261.85 C 1454.92 256.51 1472.04 257.35 1488.69 257.30 C 1488.92 248.15 1489.29 238.34 1485.00 229.98 C 1480.83 222.13 1471.42 219.21 1463.06 219.19 C 1449.25 218.06 1436.31 224.03 1424.53 230.52 C 1415.24 235.03 1414.75 218.07 1419.87 213.89 M 1443.02 279.03 C 1429.54 286.61 1430.88 310.00 1445.65 315.34 C 1461.82 321.81 1479.20 311.75 1488.53 298.72 C 1488.94 290.27 1488.59 281.79 1488.68 273.33 C 1473.46 273.83 1456.84 271.11 1443.02 279.03 Z" />
<path fill="#ffffff" opacity="1.00" d=" M 1227.32 203.24 C 1250.18 202.59 1273.12 203.19 1296.02 202.95 C 1299.08 202.89 1303.33 202.82 1304.46 206.43 C 1306.07 213.41 1305.42 221.24 1301.38 227.34 C 1283.31 255.86 1264.96 284.20 1246.90 312.72 C 1264.94 312.67 1282.98 312.74 1301.03 312.68 C 1311.90 310.31 1311.92 333.85 1301.02 331.42 C 1277.33 331.35 1253.64 331.42 1229.96 331.39 C 1226.98 331.62 1223.67 330.01 1223.08 326.87 C 1222.00 320.23 1222.38 312.98 1226.27 307.25 C 1244.49 278.67 1262.96 250.23 1281.19 221.65 C 1263.36 221.36 1245.43 222.11 1227.66 221.28 C 1223.04 217.28 1223.07 207.50 1227.32 203.24 Z" />
</g>
</svg>
