<?xml version="1.0" encoding="UTF-8" standalone="no"?> <!-- Created with Vectornator for iOS (http://vectornator.io/) --><!DOCTYPE svg PUBLIC "-//W3C//DTD SVG 1.1//EN" "http://www.w3.org/Graphics/SVG/1.1/DTD/svg11.dtd">
<svg height="100%" style="fill-rule:nonzero;clip-rule:evenodd;stroke-linecap:round;stroke-linejoin:round;" xmlns:xlink="http://www.w3.org/1999/xlink" xmlns="http://www.w3.org/2000/svg" xml:space="preserve" width="100%" xmlns:vectornator="http://vectornator.io" version="1.1" viewBox="0 0 2403 508">
<metadata>
<vectornator:setting key="DimensionsVisible" value="1"/>
<vectornator:setting key="PencilOnly" value="0"/>
<vectornator:setting key="SnapToPoints" value="0"/>
<vectornator:setting key="OutlineMode" value="0"/>
<vectornator:setting key="CMYKEnabledKey" value="0"/>
<vectornator:setting key="RulersVisible" value="1"/>
<vectornator:setting key="SnapToEdges" value="0"/>
<vectornator:setting key="GuidesVisible" value="1"/>
<vectornator:setting key="DisplayWhiteBackground" value="0"/>
<vectornator:setting key="doHistoryDisabled" value="0"/>
<vectornator:setting key="SnapToGuides" value="1"/>
<vectornator:setting key="TimeLapseWatermarkDisabled" value="0"/>
<vectornator:setting key="DynamicGuides" value="0"/>
<vectornator:setting key="IsolateActiveLayer" value="0"/>
<vectornator:setting key="SnapToGrid" value="0"/>
<vectornator:setting key="Units" value="Points"/>
</metadata>
<defs/>
<g id="Layer 1" vectornator:layerName="Layer 1">
<path d="M140+0L2263+0C2340.32+0+2403+62.6801+2403+140L2403+368C2403+445.32+2340.32+508+2263+508L140+508C62.6801+508+0+445.32+0+368L0+140C0+62.6801+62.6801+0+140+0Z" opacity="1" fill="#d52b1e"/>
</g>
<g id="#ffffffff" vectornator:layerName="#ffffffff">
<path d="M435.29+94.64C452.75+87.11+470.92+80.01+490.05+78.64C496.9+78.98+505.86+81.58+506.46+89.75C507.29+109.74+494.68+126.88+485.09+143.41C468.53+168.57+457.55+197.55+454.51+227.57C451.22+257.44+458.44+290.14+479.04+312.95C497.56+333.35+526.46+341.9+553.11+340.9C584.16+339.86+614.83+330.49+641.87+315.19C683.17+291.85+716.22+256.17+741.9+216.7C744.93+211.71+751.33+206.81+757.26+210.01C763.18+212.81+761.72+220.31+761.05+225.53C732.51+280.77+693.33+332.27+640.61+366.4C607.24+387.74+567.93+401.78+528+400.45C496.71+401.83+465.67+393.78+437.01+381.6C412.03+370.87+389.24+355.88+365.02+343.65C323.11+321.68+275.6+305.77+228+310.57C216.17+312.49+204.15+313.03+192.16+312.27C185.31+311.33+177.03+307.95+176.53+299.95C176.67+289.4+182.98+280.14+189.12+271.95C203.44+252.83+221.8+237.36+239.03+221.04C233.3+233.05+230.6+247.99+237.47+260.14C244.7+273.47+260.5+279.01+274.85+279.71C282.73+282+290.62+278.36+298.59+278.47C334.95+272.07+368.49+254.16+396.98+231.06C416.98+213.96+435.42+192.97+443.01+167.27C446.77+154.21+444.59+138.38+433.5+129.44C420.93+119.32+403.29+116.84+387.78+119.38C402.67+109.52+419.11+102.17+435.29+94.64Z" opacity="1" fill="#ffffff"/>
<path d="M1866.4+143.54C1871.61+143.69+1880.21+141.37+1882.87+147.11C1883.1+207.08+1882.91+267.08+1882.97+327.07C1883.19+332.67+1875.79+331.91+1872.01+332.16C1868.11+331.87+1860.38+332.84+1860.73+327.04C1860.71+267.34+1860.66+207.64+1860.75+147.94C1860.32+144.68+1863.86+143.73+1866.4+143.54Z" opacity="1" fill="#ffffff"/>
<path d="M2013.91+147.95C2013.61+143.17+2019.67+143.58+2022.95+143.29C2027.18+143.58+2032.98+142.33+2035.87+146.23C2036.31+183.29+2035.88+220.4+2036.08+257.48C2051.37+240.96+2066.42+224.22+2081.59+207.59C2087.37+200.41+2097.79+202.09+2105.84+203.1C2110.99+204.15+2108.26+210.31+2105.61+212.62C2090.79+227.59+2075.86+242.46+2060.94+257.32C2077.78+279.39+2094.95+301.21+2111.69+323.35C2114.46+326.01+2114.33+331.42+2109.65+331.62C2101.95+331.96+2091.26+334.44+2086.47+326.55C2069.68+304.57+2053.02+282.49+2036.07+260.64C2036+282.77+2036.09+304.91+2036.03+327.05C2036.37+332.74+2028.81+331.9+2025+332.15C2021.35+331.77+2014.56+332.93+2013.91+327.97C2013.91+267.97+2013.94+207.95+2013.91+147.95Z" opacity="1" fill="#ffffff"/>
<path d="M852.67+165.26C852.38+159.26+858.6+155.75+864+156.56C883.32+157.21+902.95+154.84+921.99+159.02C937.09+162.39+951+172.85+956.43+187.63C965.12+211.1+958.1+241.42+935.93+254.92C918.09+266.45+896.03+264.98+875.74+264.95C875.61+286.17+875.95+307.41+875.58+328.62C873.14+333.24+866.34+331.7+861.95+332.09C858.47+331.81+852.08+332.02+852.61+326.93C852.63+273.04+852.49+219.15+852.67+165.26M875.73+175.7C875.74+199.13+875.7+222.55+875.76+245.98C891.81+245.24+910.32+248.96+923.71+237.72C938.63+224.95+939.91+198.86+926.29+184.72C912.66+172.06+892.59+176.61+875.73+175.7Z" opacity="1" fill="#ffffff"/>
<path d="M1600.23+165.96C1599.74+160.07+1605.4+155.8+1610.98+156.57C1631.92+157.36+1653.43+154.27+1673.86+160.17C1688.65+164.73+1701.41+176.44+1705.44+191.62C1710.86+211.63+1706.41+235.36+1690.6+249.6C1672.5+266.34+1646.31+265.23+1623.36+264.99C1623.38+285.34+1623.35+305.69+1623.38+326.04C1623.42+328.03+1623.28+330.56+1620.88+331.02C1615.04+332.6+1608.67+332.57+1602.83+331.07C1599.93+330.58+1600.09+327.29+1600.15+325.05C1600.24+272.02+1600.08+218.99+1600.23+165.96M1623.36+175.7C1623.4+199.09+1623.33+222.49+1623.4+245.89C1637.85+245.35+1653.55+248.26+1666.8+240.93C1689.56+228.35+1689.25+187.47+1663.65+178.34C1650.66+174.19+1636.77+176.17+1623.36+175.7Z" opacity="1" fill="#ffffff"/>
<path d="M355.39+166.46C366.18+163.74+383.93+166.66+383.19+181.01C380.09+201.7+361.26+215.64+343.95+224.9C332.59+230.35+319.68+234.59+306.99+232.03C300.72+230.86+295.12+225.61+295.02+218.99C294.95+209.57+300.61+201.33+306.51+194.46C319.42+180.49+336.62+170.11+355.39+166.46Z" opacity="1" fill="#ffffff"/>
<path d="M1339.81+172.74C1342.02+169+1347.3+170.09+1350.99+169.74C1354.51+170.05+1360.07+169.21+1361.56+173.34C1361.98+183.21+1361.59+193.11+1361.73+202.99C1372.81+203+1383.89+202.89+1394.97+203.05C1398.15+208.14+1398.77+216.23+1394.74+220.95C1383.8+221.92+1372.7+221.08+1361.71+221.37C1361.8+244.57+1361.62+267.77+1361.8+290.97C1362.11+298.15+1362.63+306.58+1368.37+311.7C1375.01+316.39+1383.85+315.03+1390.89+311.96C1392.78+311.03+1396.35+310.06+1396.69+313.18C1397.8+319.28+1398.84+328.98+1391.13+331.06C1378.34+334.86+1362.99+335.3+1351.66+327.3C1341.81+319.89+1339.8+306.61+1339.62+295.08C1339.43+270.5+1339.65+245.93+1339.51+221.35C1333.14+220.89+1326.57+222.1+1320.33+220.71C1316.94+215.93+1317.03+208.17+1320.46+203.48C1326.69+202.31+1333.18+203.27+1339.52+203C1339.78+192.92+1339.15+182.79+1339.81+172.74Z" opacity="1" fill="#ffffff"/>
<path d="M600.52+178.53C616.78+175.96+635.77+179.76+646.26+193.57C653.71+202.81+654.65+215.31+652.93+226.61C645.41+259.72+611.49+283.67+578.07+282.15C565.32+281.55+552.05+276.41+544.42+265.71C535.39+253.21+535.73+236.04+541.84+222.37C552.17+199.09+575.32+181.85+600.52+178.53Z" opacity="1" fill="#ffffff"/>
<path d="M1164.36+200.56C1176.71+200.53+1189.62+203.7+1199.3+211.69C1205.1+216.18+1204.7+224.62+1203.03+230.99C1200.71+236.14+1195.42+231.62+1192.66+229.36C1180.36+219.2+1161.29+215+1147.42+224.41C1134.95+233.66+1132.16+250.47+1131.9+265.02C1131.66+278.56+1133.04+293.3+1141.7+304.32C1151.31+316.26+1169.73+317.39+1182.7+310.66C1189.19+307.91+1194.07+302.47+1200.38+299.49C1204.33+298.94+1204.19+304.35+1204.49+307C1205.13+312.8+1204.25+319.51+1198.77+322.77C1177.89+337.26+1146.34+338.77+1126.72+321.28C1113.12+308.51+1108.94+288.97+1108.7+270.99C1108.33+252.67+1111.55+233.05+1123.54+218.53C1133.33+206.44+1149.1+200.62+1164.36+200.56Z" opacity="1" fill="#ffffff"/>
<path d="M1770.54+200.83C1787.28+199.3+1805.63+201.91+1818.75+213.24C1832.32+225.02+1837.59+243.59+1838.05+261.01C1838.88+279.37+1835.36+298.94+1823.58+313.58C1813.99+325.64+1798.92+332.35+1783.76+333.59C1767.13+335.01+1748.91+332.32+1735.93+321.04C1723.55+310.41+1718.26+293.88+1717.05+278.07C1715.62+259.46+1717.91+239.49+1728.76+223.78C1738.06+210.06+1754.21+202.02+1770.54+200.83M1771.35+219.35C1749.72+221.34+1739.54+244.66+1739.98+263.97C1740.02+275.93+1740.7+288.59+1746.79+299.21C1758.89+321.19+1795.9+320.59+1807.86+298.76C1815.22+285.57+1815.59+269.73+1813.96+255.08C1812.7+244.26+1809.06+232.77+1800.15+225.83C1792.16+219.38+1781.24+218.13+1771.35+219.35Z" opacity="1" fill="#ffffff"/>
<path d="M1945.51+200.78C1958.29+199.74+1972.32+201.33+1982.86+209.18C1986.16+213.57+1985.34+220.05+1984.12+225.1C1982.68+228.33+1979.11+226.03+1977.05+224.85C1965.68+218.07+1950.91+214.86+1938.43+220.43C1928.22+225.04+1926.35+240.84+1935.48+247.49C1949.95+258.79+1970.43+259.91+1983.46+273.45C1998.07+289.66+1991.63+318.71+1971.89+327.79C1953.14+336.88+1930.02+335.69+1911.55+326.45C1903.95+323.1+1904.53+313.12+1906.35+306.41C1908.12+302.77+1912.38+305.89+1914.8+307.19C1927.93+315.38+1945.15+319.63+1959.77+312.89C1970.17+308.38+1973.02+292.27+1963.95+285.07C1950.84+274.19+1932.17+273.14+1919.38+261.64C1905.34+250.14+1904.72+226.93+1916.76+213.8C1924.13+205.87+1934.88+201.72+1945.51+200.78Z" opacity="1" fill="#ffffff"/>
<path d="M2138.43+211.45C2154.28+201.83+2173.68+198.86+2191.92+201.25C2202.05+202.67+2212.51+206.72+2218.86+215.12C2225.89+224.46+2227.13+236.67+2227.06+248C2226.95+274.96+2227.25+301.93+2226.92+328.88C2224.52+333.66+2217.44+331.89+2213.01+331.95C2204.71+331.61+2209.02+321.16+2208.02+315.91C2195.04+330.25+2174.53+337.57+2155.58+332.42C2140.48+329.58+2127.9+316.4+2127.39+300.77C2125.52+286.16+2133.24+271.03+2146.7+264.73C2164.62+255.51+2185.39+256.64+2204.95+256.6C2204.93+247.56+2205.65+237.91+2201.46+229.58C2197.57+222.16+2188.92+218.79+2180.92+218.61C2167.44+217.19+2154.39+222.25+2142.89+228.81C2140.44+230+2136.59+232.52+2134.63+229.31C2131.99+223.54+2132.11+214.82+2138.43+211.45M2159.98+277.95C2148.61+283.83+2146.77+300.79+2155.05+309.95C2161.88+317.18+2173.14+317.8+2182.21+315.22C2191.22+312.29+2198.56+305.66+2204.67+298.63C2205.44+290.01+2204.74+281.27+2205+272.61C2190+273.14+2173.73+270.52+2159.98+277.95Z" opacity="1" fill="#ffffff"/>
<path d="M1017.38+201.52C1035.24+198.75+1055.23+200.61+1069.85+212.17C1082.95+222.57+1088.89+239.49+1090.12+255.7C1091.74+274.69+1089.24+295.09+1077.97+310.99C1068.8+324.14+1053.3+331.91+1037.54+333.44C1019.98+335.25+1000.45+332.39+987.08+319.92C974.29+308+969.75+289.96+969.12+273.04C968.33+252.52+972.8+229.96+988.4+215.41C996.37+208+1006.68+203.33+1017.38+201.52M1023.34+219.41C1012.67+220.69+1003.05+227.66+998.42+237.35C991.23+252+991.34+269.12+994.05+284.88C995.98+296.83+1003.31+308.65+1015.09+312.9C1029.74+317.92+1048.58+315.32+1058.08+302.04C1067.75+288.48+1068.09+270.69+1066.33+254.76C1065.04+243.97+1061.34+232.5+1052.37+225.67C1044.26+219.26+1033.29+218.1+1023.34+219.41Z" opacity="1" fill="#ffffff"/>
<path d="M1419.87+213.89C1434.61+203.36+1453.76+200.01+1471.57+201.46C1484.13+202.43+1497.73+207.17+1504.47+218.57C1510.3+228.26+1510.85+239.98+1510.84+251C1510.69+277.21+1511.08+303.46+1510.65+329.66C1507.9+334.4+1500.79+332.68+1496.17+332.58C1488.6+331.58+1492.71+321.85+1491.71+316.71C1475.89+334.61+1447.7+340.45+1426.87+328.07C1411.18+318.89+1407.11+297.16+1414.36+281.35C1419.02+271.49+1428.78+265.12+1438.89+261.85C1454.92+256.51+1472.04+257.35+1488.69+257.3C1488.92+248.15+1489.29+238.34+1485+229.98C1480.83+222.13+1471.42+219.21+1463.06+219.19C1449.25+218.06+1436.31+224.03+1424.53+230.52C1415.24+235.03+1414.75+218.07+1419.87+213.89M1443.02+279.03C1429.54+286.61+1430.88+310+1445.65+315.34C1461.82+321.81+1479.2+311.75+1488.53+298.72C1488.94+290.27+1488.59+281.79+1488.68+273.33C1473.46+273.83+1456.84+271.11+1443.02+279.03Z" opacity="1" fill="#ffffff"/>
<path d="M1227.32+203.24C1250.18+202.59+1273.12+203.19+1296.02+202.95C1299.08+202.89+1303.33+202.82+1304.46+206.43C1306.07+213.41+1305.42+221.24+1301.38+227.34C1283.31+255.86+1264.96+284.2+1246.9+312.72C1264.94+312.67+1282.98+312.74+1301.03+312.68C1311.9+310.31+1311.92+333.85+1301.02+331.42C1277.33+331.35+1253.64+331.42+1229.96+331.39C1226.98+331.62+1223.67+330.01+1223.08+326.87C1222+320.23+1222.38+312.98+1226.27+307.25C1244.49+278.67+1262.96+250.23+1281.19+221.65C1263.36+221.36+1245.43+222.11+1227.66+221.28C1223.04+217.28+1223.07+207.5+1227.32+203.24Z" opacity="1" fill="#ffffff"/>
</g>
</svg>
